<svg xmlns="http://www.w3.org/2000/svg" viewBox="0 0 24 24" width="48px" height="48px">
    <path d="M19.865,0H4.135C3.287,0,2.577,0.71,2.577,1.558V22.442c0,0.847,0.71,1.557,1.558,1.557h15.73c0.847,0,1.557-0.71,1.557-1.557V1.558 C21.422,0.71,20.711,0,19.865,0z M7.326,2.914h9.347v2.043H7.326V2.914z M16.674,21.086H7.326v-2.042h9.347V21.086z M16.674,17.903H7.326 v-2.043h9.347V17.903z M16.674,14.721H7.326v-2.042h9.347V14.721z M16.674,11.539H7.326V9.496h9.347V11.539z M16.674,8.357H7.326V6.314 h9.347V8.357z M12,20.729H7.326v-2.043H12V20.729z M12,17.546H7.326v-2.043H12V17.546z M12,14.364H7.326v-2.042H12V14.364z M12,11.182 H7.326V9.14H12V11.182z M12,8H7.326V5.957H12V8z"/>
</svg>
